# xmcd CD database file
#
# Track frame offsets:
#	150
#	24864
#	45864
#	60414
#	88765
#	109615
#	136315
#	160428
#	176103
#	190953
#	208053
#	229691
#	259691
#
# Disc length: 3760 seconds
#
# Revision: 1
# Processed by: cddbd v1.5.1PL0 Copyright (c) Steve Scherf et al.
# Submitted via: CDex 1.51
#
DISCID=a70eae0d
DTITLE=Groundhogs - 54146 - CD1 - Back against the wall
DYEAR=2001
DGENRE=Blues
TTITLE0=Back against the wall
TTITLE1=No to submission
TTITLE2=Blue boar blues
TTITLE3=Waiting in shadows
TTITLE4=Ain`t no slaver
TTITLE5=Stick to your guns
TTITLE6=In the meantime
TTITLE7=54146
TTITLE8=Express man
TTITLE9=Strange town
TTITLE10=Eccentric man
TTITLE11=3744 James Road
TTITLE12=I want you to love me
EXTD=YEAR: 2001
EXTT0=
EXTT1=
EXTT2=
EXTT3=
EXTT4=
EXTT5=
EXTT6=
EXTT7=
EXTT8=
EXTT9=
EXTT10=
EXTT11=
EXTT12=
PLAYORDER=
